<?xml version="1.0" encoding="UTF-8" standalone="no"?>
<svg
   xmlns:dc="http://purl.org/dc/elements/1.1/"
   xmlns:cc="http://creativecommons.org/ns#"
   xmlns:rdf="http://www.w3.org/1999/02/22-rdf-syntax-ns#"
   xmlns:svg="http://www.w3.org/2000/svg"
   xmlns="http://www.w3.org/2000/svg"
   xmlns:sodipodi="http://sodipodi.sourceforge.net/DTD/sodipodi-0.dtd"
   xmlns:inkscape="http://www.inkscape.org/namespaces/inkscape"
   inkscape:version="1.0 (4035a4fb49, 2020-05-01)"
   sodipodi:docname="real.central.projection.of.a.camera.svg"
   id="svg405"
   xml:space="preserve"
   stroke-linejoin="round"
   stroke-width="28.222"
   fill-rule="evenodd"
   preserveAspectRatio="xMidYMid"
   viewBox="0 0 23500 12107"
   height="121.07mm"
   width="235mm"
   version="1.2"><metadata
   id="metadata409"><rdf:RDF><cc:Work
       rdf:about=""><dc:format>image/svg+xml</dc:format><dc:type
         rdf:resource="http://purl.org/dc/dcmitype/StillImage" /><dc:title></dc:title></cc:Work></rdf:RDF></metadata><sodipodi:namedview
   fit-margin-bottom="0"
   fit-margin-right="0"
   fit-margin-left="0"
   fit-margin-top="0"
   inkscape:current-layer="svg405"
   inkscape:window-maximized="1"
   inkscape:window-y="-8"
   inkscape:window-x="-8"
   inkscape:cy="228.7937"
   inkscape:cx="444.09449"
   inkscape:zoom="1.2666223"
   showgrid="false"
   id="namedview407"
   inkscape:window-height="961"
   inkscape:window-width="1280"
   inkscape:pageshadow="2"
   inkscape:pageopacity="0"
   guidetolerance="10"
   gridtolerance="10"
   objecttolerance="10"
   borderopacity="1"
   bordercolor="#666666"
   pagecolor="#ffffff" />
 <defs
   id="defs61">
   
   
  
    
   
    
    
   
     
    
   
   
  
    
   
   
   
  
    
   
   
   
  
    
   
   
   
  
    
   
    
    
   
     
    </defs>
 <defs
   id="defs70" />
 <defs
   id="defs79" />
 <defs
   id="defs92" />
 <g
   transform="translate(-376.74991,-1341.0833)"
   id="MasterSlide_1_Standard"
   visibility="visible">
  <desc
   id="desc94">Master slide
  </desc>
  <rect
   id="rect96"
   height="14500"
   width="24000"
   y="0"
   x="0"
   stroke="none"
   fill="none" />
 </g>
 <g
   transform="translate(-588.41658,-1394)"
   id="g100"
   style="visibility:visible">
   <path
   fill="none"
   stroke="#000000"
   id="Drawing_1_0"
   stroke-linejoin="round"
   d="M 2841,7386 H 12841" />
  </g><g
   transform="translate(-588.41658,-1394)"
   id="g107"
   style="visibility:visible">
   <path
   fill="#000000"
   stroke="none"
   d="m 12841,7334 c -28,0 -50,22 -50,50 0,28 22,50 50,50 28,0 50,-22 50,-50 0,-28 -22,-50 -50,-50 z"
   id="path102" />
   <path
   fill="none"
   stroke="#000000"
   id="Drawing_2_0"
   stroke-linejoin="round"
   d="m 12841,7334 c -28,0 -50,22 -50,50 0,28 22,50 50,50 28,0 50,-22 50,-50 0,-28 -22,-50 -50,-50 z" />
   <rect
   fill="none"
   stroke="none"
   x="12791"
   y="7334"
   width="101"
   height="101"
   id="rect105" />
  </g><g
   transform="translate(-588.41658,-1394)"
   id="Drawing_3"
   style="visibility:visible">
   <rect
   fill="none"
   stroke="none"
   x="12278"
   y="6342"
   width="960"
   height="972"
   id="rect109" />
   <g
   fill="#000000"
   stroke="none"
   font-family="'Times New Roman embedded'"
   font-size="635px"
   font-style="italic"
   font-weight="400"
   id="g113">
    <text
   x="12528"
   y="7034"
   id="text111">O</text>
   </g>
  </g><g
   transform="translate(-588.41658,-1394)"
   id="g117"
   style="visibility:visible">
   <path
   fill="none"
   stroke="#000000"
   id="Drawing_4_0"
   stroke-linejoin="round"
   stroke-dasharray="250, 250"
   d="M 12846,7389 2936,1989" />
  </g><g
   transform="translate(-588.41658,-1394)"
   id="g124"
   style="visibility:visible">
   <path
   fill="#000000"
   stroke="none"
   d="m 2960,2046 c -28,0 -50,-22 -50,-50 0,-28 22,-50 50,-50 28,0 50,22 50,50 0,28 -22,50 -50,50 z"
   id="path119" />
   <path
   fill="none"
   stroke="#000000"
   id="Drawing_5_0"
   stroke-linejoin="round"
   d="m 2960,2046 c -28,0 -50,-22 -50,-50 0,-28 22,-50 50,-50 28,0 50,22 50,50 0,28 -22,50 -50,50 z" />
   <rect
   fill="none"
   stroke="none"
   x="2909"
   y="1946"
   width="102"
   height="102"
   id="rect122" />
  </g><g
   transform="translate(-588.41658,-1394)"
   id="Drawing_6"
   style="visibility:visible">
   <rect
   fill="none"
   stroke="none"
   x="21394"
   y="6523"
   width="715"
   height="972"
   id="rect126" />
   <g
   fill="#000000"
   stroke="none"
   font-family="'Times New Roman embedded'"
   font-size="635px"
   font-style="italic"
   font-weight="400"
   id="g130">
    <text
   x="21644"
   y="7215"
   id="text128">H</text>
   </g>
  </g><g
   transform="translate(-588.41658,-1394)"
   id="g134"
   style="visibility:visible">
   <path
   fill="none"
   stroke="#000000"
   id="Drawing_7_0"
   stroke-linejoin="round"
   stroke-dasharray="27, 200, 500, 200"
   d="M 7633,8713 21223,5253" />
  </g><g
   transform="translate(-588.41658,-1394)"
   id="g141"
   style="visibility:visible">
   <path
   fill="#000000"
   stroke="none"
   d="m 14383,6943 c -28,0 -50,22 -50,50 0,28 22,50 50,50 28,0 50,-22 50,-50 0,-28 -22,-50 -50,-50 z"
   id="path136" />
   <path
   fill="none"
   stroke="#000000"
   id="Drawing_8_0"
   stroke-linejoin="round"
   d="m 14383,6943 c -28,0 -50,22 -50,50 0,28 22,50 50,50 28,0 50,-22 50,-50 0,-28 -22,-50 -50,-50 z" />
   <rect
   fill="none"
   stroke="none"
   x="14333"
   y="6943"
   width="101"
   height="101"
   id="rect139" />
  </g><g
   transform="translate(-588.41658,-1394)"
   id="DrawingGroup_1"
   style="visibility:visible">
   <g
   id="g144">
    <path
   fill="none"
   stroke="#000000"
   id="Drawing_9_0"
   stroke-linejoin="round"
   stroke-dasharray="135, 135"
   d="M 12343,5426 12093,4426" />
   </g>
   <g
   id="g147">
    <path
   fill="none"
   stroke="#000000"
   id="Drawing_10_0"
   stroke-linejoin="round"
   stroke-dasharray="135, 135"
   d="m 12022,5506 700,-180" />
   </g>
  </g><g
   transform="translate(-588.41658,-1394)"
   id="DrawingGroup_2"
   style="visibility:visible">
   <g
   id="g151">
    <path
   fill="none"
   stroke="#000000"
   id="Drawing_11_0"
   stroke-linejoin="round"
   stroke-dasharray="135, 135"
   d="M 13885,5035 13635,4035" />
   </g>
   <g
   id="g154">
    <path
   fill="none"
   stroke="#000000"
   id="Drawing_12_0"
   stroke-linejoin="round"
   stroke-dasharray="135, 135"
   d="m 13560,5121 700,-180" />
   </g>
  </g><g
   transform="translate(-588.41658,-1394)"
   id="DrawingGroup_3"
   style="visibility:visible">
   <g
   id="g158">
    <path
   fill="none"
   stroke="#000000"
   id="Drawing_13_0"
   stroke-linejoin="round"
   stroke-dasharray="135, 135"
   d="M 13568,10218 13318,9218" />
   </g>
   <g
   id="g161">
    <path
   fill="none"
   stroke="#000000"
   id="Drawing_14_0"
   stroke-linejoin="round"
   stroke-dasharray="135, 135"
   d="m 13013,9385 700,-180" />
   </g>
  </g><g
   transform="translate(-588.41658,-1394)"
   id="DrawingGroup_4"
   style="visibility:visible">
   <g
   id="g165">
    <path
   fill="none"
   stroke="#000000"
   id="Drawing_15_0"
   stroke-linejoin="round"
   stroke-dasharray="135, 135"
   d="M 15110,9827 14860,8827" />
   </g>
   <g
   id="g168">
    <path
   fill="none"
   stroke="#000000"
   id="Drawing_16_0"
   stroke-linejoin="round"
   stroke-dasharray="135, 135"
   d="m 14553,8994 700,-180" />
   </g>
  </g><rect
   id="rect171"
   height="964"
   width="1350"
   y="2275"
   x="10777.582"
   stroke="none"
   fill="none"
   style="visibility:visible" /><rect
   id="rect180"
   height="964"
   width="1350"
   y="1915.9999"
   x="12381.582"
   stroke="none"
   fill="none"
   style="visibility:visible" /><g
   transform="translate(-588.41658,-1394)"
   id="g190"
   style="visibility:visible">
   <path
   fill="none"
   stroke="#000000"
   id="Drawing_19_0"
   stroke-linejoin="round"
   d="m 14391,6994 h 6820" />
  </g><g
   transform="translate(-588.41658,-1394)"
   id="g195"
   style="visibility:visible">
   <path
   fill="none"
   stroke="#000000"
   id="Drawing_20_0"
   stroke-linejoin="round"
   d="m 10623,6184 -39,74 -36,76 -33,76 -31,78 -29,78 -26,80 -23,80 -21,81 -17,82 -16,82 -12,83 -10,83 -7,83 -4,83 -1,84 2520,-1 z" />
   <rect
   fill="none"
   stroke="none"
   x="10318"
   y="4866"
   width="5041"
   height="5041"
   id="rect193" />
  </g><g
   transform="translate(-694.24992,-1235.25)"
   id="g199"
   font-weight="400"
   font-style="normal"
   font-size="636px"
   font-family="'StarSymbol embedded'"
   stroke="none"
   fill="#000000"
   style="visibility:visible">
    <text
   id="text197"
   y="6989"
   x="10826"><tspan
     sodipodi:role="line"
     id="tspan606"
     x="10826"
     y="6989">τ</tspan></text>
   </g><g
   transform="translate(-588.41658,-1394)"
   id="g207"
   style="visibility:visible">
   <path
   fill="none"
   stroke="#000000"
   id="Drawing_22_0"
   stroke-linejoin="round"
   stroke-dasharray="250, 250"
   d="m 14381,6996 6826,3567" />
  </g><g
   transform="translate(-588.41658,-1394)"
   id="g213"
   style="visibility:visible">
   <path
   fill="#ffffff"
   stroke="none"
   d="m 15910,7743 h -195 v -486 h 390 v 486 z"
   id="path209" />
   <rect
   fill="none"
   stroke="none"
   x="15715"
   y="7257"
   width="391"
   height="487"
   id="rect211" />
  </g><g
   transform="translate(-535.49991,-1288.1667)"
   fill="#000000"
   stroke="none"
   font-family="'StarSymbol embedded'"
   font-size="636px"
   font-style="normal"
   font-weight="400"
   id="g217"
   style="visibility:visible">
     <text
   x="16102"
   y="7659"
   id="text215"><tspan
     y="7659"
     x="16102"
     id="tspan608"
     sodipodi:role="line">τ</tspan></text>
    </g><g
   transform="translate(-588.41658,-1394)"
   id="Drawing_25"
   style="visibility:visible">
    <rect
   id="rect224"
   height="972"
   width="638"
   y="6898"
   x="16187"
   stroke="none"
   fill="none" />
    <g
   transform="translate(52.916667,52.916667)"
   id="g228"
   font-weight="400"
   font-style="italic"
   font-size="635px"
   font-family="'Times New Roman embedded'"
   stroke="none"
   fill="#000000">
     <text
   id="text226"
   y="7590"
   x="16437">'</text>
    </g>
   </g><g
   transform="translate(-588.41658,-1394)"
   id="Drawing_26"
   style="visibility:visible">
    <rect
   id="rect232"
   height="964"
   width="926"
   y="1394"
   x="1941"
   stroke="none"
   fill="none" />
    <g
   id="g236"
   font-weight="400"
   font-style="normal"
   font-size="635px"
   font-family="'Arial embedded'"
   stroke="none"
   fill="#000000">
     <text
   id="text234"
   y="2091"
   x="2191">P</text>
    </g>
   </g><g
   transform="translate(-588.41658,-1394)"
   id="g248"
   style="visibility:visible">
   <path
   fill="none"
   stroke="#000000"
   id="Drawing_28_0"
   stroke-linejoin="round"
   d="m 21208,3030 v 8000" />
  </g><g
   transform="translate(-588.41658,-1394)"
   id="g253"
   style="visibility:visible">
   <path
   fill="#000000"
   stroke="none"
   d="m 21207,10606 c -9,0 -17,-2 -25,-7 -8,-4 -14,-10 -18,-18 -5,-8 -7,-16 -7,-25 0,-9 2,-17 7,-25 4,-8 10,-14 18,-18 8,-5 16,-7 25,-7 9,0 17,2 25,7 8,4 14,10 18,18 5,8 7,16 7,25 0,9 -2,17 -7,25 -4,8 -10,14 -18,18 -8,5 -16,7 -25,7 z"
   id="path250" />
   <path
   fill="none"
   stroke="#000000"
   id="Drawing_29_0"
   stroke-linejoin="round"
   d="m 21207,10606 c -9,0 -17,-2 -25,-7 -8,-4 -14,-10 -18,-18 -5,-8 -7,-16 -7,-25 0,-9 2,-17 7,-25 4,-8 10,-14 18,-18 8,-5 16,-7 25,-7 9,0 17,2 25,7 8,4 14,10 18,18 5,8 7,16 7,25 0,9 -2,17 -7,25 -4,8 -10,14 -18,18 -8,5 -16,7 -25,7 z" />
  </g><rect
   fill="none"
   stroke="none"
   x="20754.586"
   y="8636"
   width="1049"
   height="964"
   id="rect255"
   style="visibility:visible" /><text
   id="text259"
   y="9333"
   x="21004.586"
   style="font-style:normal;font-weight:400;font-size:635px;font-family:'Arial embedded';visibility:visible;fill:#000000;stroke:none">       <tspan
   id="tspan257"
   x="21004.586">P'</tspan></text><g
   transform="translate(-588.41658,-1394)"
   id="g273"
   style="visibility:visible">
   <path
   fill="none"
   stroke="#000000"
   id="Drawing_32_0"
   stroke-linejoin="round"
   d="m 6017,3427 v 8000" />
  </g><g
   transform="translate(-588.41658,-1394)"
   id="g278"
   style="visibility:visible">
   <path
   fill="#000000"
   stroke="none"
   d="m 6016,3724 c -9,0 -17,-2 -25,-7 -8,-4 -14,-10 -18,-18 -5,-8 -7,-16 -7,-25 0,-9 2,-17 7,-25 4,-8 10,-14 18,-18 8,-5 16,-7 25,-7 9,0 17,2 25,7 8,4 14,10 18,18 5,8 7,16 7,25 0,9 -2,17 -7,25 -4,8 -10,14 -18,18 -8,5 -16,7 -25,7 z"
   id="path275" />
   <path
   fill="none"
   stroke="#000000"
   id="Drawing_33_0"
   stroke-linejoin="round"
   d="m 6016,3724 c -9,0 -17,-2 -25,-7 -8,-4 -14,-10 -18,-18 -5,-8 -7,-16 -7,-25 0,-9 2,-17 7,-25 4,-8 10,-14 18,-18 8,-5 16,-7 25,-7 9,0 17,2 25,7 8,4 14,10 18,18 5,8 7,16 7,25 0,9 -2,17 -7,25 -4,8 -10,14 -18,18 -8,5 -16,7 -25,7 z" />
  </g><rect
   fill="none"
   stroke="none"
   x="5328.584"
   y="1224.9999"
   width="1049"
   height="964"
   id="rect280"
   style="visibility:visible" /><text
   id="text284"
   y="1921.9999"
   x="5578.584"
   style="font-style:normal;font-weight:400;font-size:635px;font-family:'Arial embedded';visibility:visible;fill:#000000;stroke:none">       <tspan
   id="tspan282"
   x="5578.584">P'</tspan></text><g
   transform="translate(-588.41658,-1394)"
   id="Drawing_38"
   style="visibility:visible">
   <rect
   fill="none"
   stroke="none"
   x="5981"
   y="7293"
   width="715"
   height="972"
   id="rect323" />
   <g
   fill="#000000"
   stroke="none"
   font-family="'Times New Roman embedded'"
   font-size="635px"
   font-style="italic"
   font-weight="400"
   id="g327">
    <text
   x="6231"
   y="7985"
   id="text325">H</text>
   </g>
  </g><rect
   id="rect330"
   height="964"
   width="4766"
   y="7927.9995"
   x="6872.584"
   stroke="none"
   fill="none"
   style="visibility:visible" /><g
   transform="translate(-588.41658,-1394)"
   id="g340"
   style="visibility:visible">
   <path
   fill="none"
   stroke="#000000"
   id="Drawing_40_0"
   stroke-linejoin="round"
   d="m 7738,9629 277,-892" />
  </g><rect
   id="rect342"
   height="964"
   width="5079"
   y="7079.9995"
   x="14.583435"
   stroke="none"
   fill="none"
   style="visibility:visible" /><text
   x="269.91562"
   y="7827.1826"
   id="text346"
   style="font-style:normal;font-weight:400;font-size:635px;font-family:'Arial embedded';visibility:visible;fill:#000000;stroke:none">viewing axis</text><g
   transform="matrix(0.86316957,0,0,1.0884839,-206.24331,-2059.5836)"
   id="g352"
   style="visibility:visible">
   <path
   fill="none"
   stroke="#000000"
   id="Drawing_42_0"
   stroke-linejoin="round"
   d="M 1479,8541 2792,7520" />
  </g><g
   transform="translate(-588.41658,-1394)"
   id="g357"
   style="visibility:visible">
   <path
   fill="none"
   stroke="#000000"
   id="Drawing_43_0"
   stroke-linejoin="round"
   d="m 16623,8169 37,-73 34,-73 31,-75 29,-75 27,-77 25,-77 21,-78 20,-79 16,-79 15,-80 11,-80 9,-80 7,-81 4,-81 1,-81 -2520,1 z" />
   <rect
   fill="none"
   stroke="none"
   x="11869"
   y="4481"
   width="5042"
   height="5042"
   id="rect355" />
  </g><g
   transform="translate(-588.41658,-1394)"
   id="g362"
   style="visibility:visible">
   <path
   fill="#000000"
   stroke="none"
   d="m 21208,5306 c -9,0 -17,-2 -25,-7 -8,-4 -14,-10 -18,-18 -5,-8 -7,-16 -7,-25 0,-9 2,-17 7,-25 4,-8 10,-14 18,-18 8,-5 16,-7 25,-7 9,0 17,2 25,7 8,4 14,10 18,18 5,8 7,16 7,25 0,9 -2,17 -7,25 -4,8 -10,14 -18,18 -8,5 -16,7 -25,7 z"
   id="path359" />
   <path
   fill="none"
   stroke="#000000"
   id="Drawing_44_0"
   stroke-linejoin="round"
   d="m 21208,5306 c -9,0 -17,-2 -25,-7 -8,-4 -14,-10 -18,-18 -5,-8 -7,-16 -7,-25 0,-9 2,-17 7,-25 4,-8 10,-14 18,-18 8,-5 16,-7 25,-7 9,0 17,2 25,7 8,4 14,10 18,18 5,8 7,16 7,25 0,9 -2,17 -7,25 -4,8 -10,14 -18,18 -8,5 -16,7 -25,7 z" />
  </g><g
   transform="translate(-588.41658,-1394)"
   id="g367"
   style="visibility:visible">
   <path
   fill="#000000"
   stroke="none"
   d="m 21207,7043 c -9,0 -17,-2 -25,-7 -8,-4 -14,-10 -18,-18 -5,-8 -7,-16 -7,-25 0,-9 2,-17 7,-25 4,-8 10,-14 18,-18 8,-5 16,-7 25,-7 9,0 17,2 25,7 8,4 14,10 18,18 5,8 7,16 7,25 0,9 -2,17 -7,25 -4,8 -10,14 -18,18 -8,5 -16,7 -25,7 z"
   id="path364" />
   <path
   fill="none"
   stroke="#000000"
   id="Drawing_45_0"
   stroke-linejoin="round"
   d="m 21207,7043 c -9,0 -17,-2 -25,-7 -8,-4 -14,-10 -18,-18 -5,-8 -7,-16 -7,-25 0,-9 2,-17 7,-25 4,-8 10,-14 18,-18 8,-5 16,-7 25,-7 9,0 17,2 25,7 8,4 14,10 18,18 5,8 7,16 7,25 0,9 -2,17 -7,25 -4,8 -10,14 -18,18 -8,5 -16,7 -25,7 z" />
  </g><g
   transform="translate(-588.41658,-1394)"
   id="g372"
   style="visibility:visible">
   <path
   fill="#000000"
   stroke="none"
   d="m 6017,7436 c -9,0 -17,-2 -25,-7 -8,-4 -14,-10 -18,-18 -5,-8 -7,-16 -7,-25 0,-9 2,-17 7,-25 4,-8 10,-14 18,-18 8,-5 16,-7 25,-7 9,0 17,2 25,7 8,4 14,10 18,18 5,8 7,16 7,25 0,9 -2,17 -7,25 -4,8 -10,14 -18,18 -8,5 -16,7 -25,7 z"
   id="path369" />
   <path
   fill="none"
   stroke="#000000"
   id="Drawing_46_0"
   stroke-linejoin="round"
   d="m 6017,7436 c -9,0 -17,-2 -25,-7 -8,-4 -14,-10 -18,-18 -5,-8 -7,-16 -7,-25 0,-9 2,-17 7,-25 4,-8 10,-14 18,-18 8,-5 16,-7 25,-7 9,0 17,2 25,7 8,4 14,10 18,18 5,8 7,16 7,25 0,9 -2,17 -7,25 -4,8 -10,14 -18,18 -8,5 -16,7 -25,7 z" />
  </g><g
   transform="translate(-588.41658,-1394)"
   id="Drawing_47"
   style="visibility:visible">
   <rect
   fill="none"
   stroke="none"
   x="21396"
   y="4734"
   width="926"
   height="964"
   id="rect374" />
   <g
   fill="#000000"
   stroke="none"
   font-family="'Arial embedded'"
   font-size="635px"
   font-style="normal"
   font-weight="400"
   id="g378">
    <text
   x="21646"
   y="5431"
   id="text376">S</text>
   </g>
  </g><g
   transform="translate(-588.41658,-1394)"
   id="g386"
   style="visibility:visible">
   <path
   fill="none"
   stroke="#000000"
   id="Drawing_48_0"
   stroke-linejoin="round"
   d="m 14686,6694 h 6219" />
   <path
   fill="#000000"
   stroke="none"
   id="Drawing_48_1"
   d="m 14386,6694 300,100 v -200 z" />
   <path
   fill="#000000"
   stroke="none"
   id="Drawing_48_2"
   d="m 21205,6694 -300,-100 v 200 z" />
   <path
   fill="none"
   stroke="#000000"
   id="Drawing_48_3"
   stroke-linejoin="round"
   d="M 14386,6894 V 6594" />
   <path
   fill="none"
   stroke="#000000"
   id="Drawing_48_4"
   stroke-linejoin="round"
   d="M 21205,6894 V 6594" />
  </g><rect
   id="rect388"
   height="972"
   width="1096"
   y="4557"
   x="13231.582"
   stroke="none"
   fill="none"
   style="visibility:visible" /><text
   x="13423.334"
   y="5144.4658"
   id="text392"
   style="font-style:italic;font-weight:400;font-size:635px;font-family:'Times New Roman embedded';visibility:visible;fill:#000000;stroke:none">     <tspan
   x="13423.334"
   id="tspan390">O'</tspan></text><g
   transform="translate(-588.41658,-1394)"
   id="g402"
   style="visibility:visible">
   <path
   fill="none"
   stroke="#000000"
   id="Drawing_50_0"
   stroke-linejoin="round"
   d="m 20805,7294 v 2960" />
   <path
   fill="#000000"
   stroke="none"
   id="Drawing_50_1"
   d="m 20805,6994 -100,300 h 200 z" />
   <path
   fill="#000000"
   stroke="none"
   id="Drawing_50_2"
   d="m 20805,10554 100,-300 h -200 z" />
   <path
   fill="none"
   stroke="#000000"
   id="Drawing_50_3"
   stroke-linejoin="round"
   d="m 21105,6994 h -400" />
   <path
   fill="none"
   stroke="#000000"
   id="Drawing_50_4"
   stroke-linejoin="round"
   d="m 21105,10554 h -400" />
  </g>
<text
   id="text612"
   y="5205.6694"
   x="17277.639"
   style="font-size:635px;line-height:1.25;font-family:sans-serif;-inkscape-font-specification:'sans-serif, Normal';stroke-width:746.707"
   xml:space="preserve"><tspan
     style="stroke-width:746.707"
     y="5205.6694"
     x="17277.639"
     id="tspan610"
     sodipodi:role="line">c</tspan></text><text
   id="text616"
   y="7461.5991"
   x="19792.959"
   style="font-size:635px;line-height:1.25;font-family:sans-serif;-inkscape-font-specification:'sans-serif, Normal';stroke-width:746.707"
   xml:space="preserve"><tspan
     style="stroke-width:746.707"
     y="7461.5991"
     x="19792.959"
     id="tspan614"
     sodipodi:role="line">r</tspan></text><text
   id="text710"
   y="8817.2441"
   x="6388.0039"
   style="font-size:635px;line-height:1.25;font-family:sans-serif;-inkscape-font-specification:'sans-serif, Normal';stroke-width:746.707"
   xml:space="preserve"><tspan
     style="stroke-width:746.707"
     y="8817.2441"
     x="6388.0039"
     id="tspan708"
     sodipodi:role="line">optical axis</tspan></text><text
   id="text714"
   y="1979.3813"
   x="10417.598"
   style="font-size:635px;line-height:1.25;font-family:sans-serif;-inkscape-font-specification:'sans-serif, Normal';stroke-width:746.707"
   xml:space="preserve"><tspan
     style="stroke-width:746.707"
     y="1979.3813"
     x="10417.598"
     id="tspan712"
     sodipodi:role="line">entr.</tspan><tspan
     id="tspan716"
     style="stroke-width:746.707"
     y="2773.1313"
     x="10417.598"
     sodipodi:role="line">pupil</tspan></text><text
   id="text720"
   y="1706.2577"
   x="12432.125"
   style="font-size:635px;line-height:1.25;font-family:sans-serif;-inkscape-font-specification:'sans-serif, Normal';stroke-width:746.707"
   xml:space="preserve"><tspan
     style="stroke-width:746.707"
     y="1706.2577"
     x="12432.125"
     id="tspan718"
     sodipodi:role="line">exit</tspan><tspan
     id="tspan722"
     style="stroke-width:746.707"
     y="2500.0078"
     x="12432.125"
     sodipodi:role="line">pupil</tspan></text><text
   id="text730"
   y="10931.837"
   x="2814.4438"
   style="font-size:635px;line-height:1.25;font-family:sans-serif;-inkscape-font-specification:'sans-serif, Normal';stroke-width:746.707"
   xml:space="preserve"><tspan
     style="stroke-width:746.707"
     y="10931.837"
     x="2814.4438"
     id="tspan728"
     sodipodi:role="line">image plane in</tspan><tspan
     id="tspan732"
     style="stroke-width:746.707"
     y="11725.587"
     x="2814.4438"
     sodipodi:role="line">positive position</tspan></text><text
   xml:space="preserve"
   style="font-size:635px;line-height:1.25;font-family:sans-serif;-inkscape-font-specification:'sans-serif, Normal';stroke-width:746.707"
   x="17894.834"
   y="10952.726"
   id="text738"><tspan
     sodipodi:role="line"
     id="tspan734"
     x="17894.834"
     y="10952.726"
     style="stroke-width:746.707">image plane in</tspan><tspan
     sodipodi:role="line"
     x="17894.834"
     y="11746.476"
     style="stroke-width:746.707"
     id="tspan736">negative position</tspan></text></svg>
